<mxfile host="app.diagrams.net" modified="2023-01-29T17:20:59.827Z" agent="5.0 (Windows NT 10.0; Win64; x64) AppleWebKit/537.36 (KHTML, like Gecko) Chrome/109.0.0.0 Safari/537.36" etag="cN3ozf1MPQFbL9QPhaK5" version="20.8.8" type="github">
  <diagram name="Page-1" id="5f0bae14-7c28-e335-631c-24af17079c00">
    <mxGraphModel dx="1313" dy="1536" grid="1" gridSize="10" guides="1" tooltips="1" connect="1" arrows="1" fold="1" page="1" pageScale="1" pageWidth="1100" pageHeight="850" background="none" math="0" shadow="0">
      <root>
        <mxCell id="0" />
        <mxCell id="1" parent="0" />
        <mxCell id="gJrPAwoHWTuPe3DyY9Ao-3" style="edgeStyle=orthogonalEdgeStyle;rounded=0;orthogonalLoop=1;jettySize=auto;html=1;exitX=0.5;exitY=1;exitDx=0;exitDy=0;entryX=0.5;entryY=0;entryDx=0;entryDy=0;" edge="1" parent="1" source="39150e848f15840c-5" target="gJrPAwoHWTuPe3DyY9Ao-2">
          <mxGeometry relative="1" as="geometry" />
        </mxCell>
        <mxCell id="39150e848f15840c-5" value="&lt;div style=&quot;&quot;&gt;Hospital Management&amp;nbsp;&lt;/div&gt;&lt;div style=&quot;&quot;&gt;System&lt;/div&gt;" style="shape=component;align=left;spacingLeft=36;rounded=0;shadow=0;comic=0;labelBackgroundColor=none;strokeWidth=1;fontFamily=Verdana;fontSize=12;html=1;" parent="1" vertex="1">
          <mxGeometry x="10" y="210" width="180" height="80" as="geometry" />
        </mxCell>
        <mxCell id="gJrPAwoHWTuPe3DyY9Ao-97" style="edgeStyle=orthogonalEdgeStyle;rounded=0;orthogonalLoop=1;jettySize=auto;html=1;exitX=1;exitY=0.5;exitDx=0;exitDy=0;" edge="1" parent="1" source="39150e848f15840c-7">
          <mxGeometry relative="1" as="geometry">
            <mxPoint x="600" y="630" as="targetPoint" />
          </mxGeometry>
        </mxCell>
        <mxCell id="39150e848f15840c-7" value="Surgery" style="shape=component;align=left;spacingLeft=36;rounded=0;shadow=0;comic=0;labelBackgroundColor=none;strokeWidth=1;fontFamily=Verdana;fontSize=12;html=1;" parent="1" vertex="1">
          <mxGeometry x="410" y="600" width="120" height="60" as="geometry" />
        </mxCell>
        <mxCell id="gJrPAwoHWTuPe3DyY9Ao-92" style="edgeStyle=orthogonalEdgeStyle;rounded=0;orthogonalLoop=1;jettySize=auto;html=1;exitX=1;exitY=0.5;exitDx=0;exitDy=0;" edge="1" parent="1" source="39150e848f15840c-10">
          <mxGeometry relative="1" as="geometry">
            <mxPoint x="600" y="80" as="targetPoint" />
          </mxGeometry>
        </mxCell>
        <mxCell id="39150e848f15840c-10" value="Hospital" style="shape=component;align=left;spacingLeft=36;rounded=0;shadow=0;comic=0;labelBackgroundColor=none;strokeWidth=1;fontFamily=Verdana;fontSize=12;html=1;" parent="1" vertex="1">
          <mxGeometry x="410" y="50" width="120" height="60" as="geometry" />
        </mxCell>
        <mxCell id="gJrPAwoHWTuPe3DyY9Ao-2" value="" style="ellipse;whiteSpace=wrap;html=1;aspect=fixed;" vertex="1" parent="1">
          <mxGeometry x="85" y="370" width="30" height="30" as="geometry" />
        </mxCell>
        <mxCell id="gJrPAwoHWTuPe3DyY9Ao-4" value="System Admin&lt;br&gt;" style="text;html=1;strokeColor=none;fillColor=none;align=center;verticalAlign=middle;whiteSpace=wrap;rounded=0;" vertex="1" parent="1">
          <mxGeometry x="70" y="410" width="60" height="30" as="geometry" />
        </mxCell>
        <mxCell id="gJrPAwoHWTuPe3DyY9Ao-93" style="edgeStyle=orthogonalEdgeStyle;rounded=0;orthogonalLoop=1;jettySize=auto;html=1;exitX=1;exitY=0.5;exitDx=0;exitDy=0;" edge="1" parent="1" source="gJrPAwoHWTuPe3DyY9Ao-5">
          <mxGeometry relative="1" as="geometry">
            <mxPoint x="600" y="190" as="targetPoint" />
          </mxGeometry>
        </mxCell>
        <mxCell id="gJrPAwoHWTuPe3DyY9Ao-5" value="Patient" style="shape=component;align=left;spacingLeft=36;rounded=0;shadow=0;comic=0;labelBackgroundColor=none;strokeWidth=1;fontFamily=Verdana;fontSize=12;html=1;" vertex="1" parent="1">
          <mxGeometry x="410" y="160" width="120" height="60" as="geometry" />
        </mxCell>
        <mxCell id="gJrPAwoHWTuPe3DyY9Ao-94" style="edgeStyle=orthogonalEdgeStyle;rounded=0;orthogonalLoop=1;jettySize=auto;html=1;exitX=1;exitY=0.5;exitDx=0;exitDy=0;" edge="1" parent="1" source="gJrPAwoHWTuPe3DyY9Ao-6">
          <mxGeometry relative="1" as="geometry">
            <mxPoint x="600" y="300" as="targetPoint" />
          </mxGeometry>
        </mxCell>
        <mxCell id="gJrPAwoHWTuPe3DyY9Ao-6" value="Doctor" style="shape=component;align=left;spacingLeft=36;rounded=0;shadow=0;comic=0;labelBackgroundColor=none;strokeWidth=1;fontFamily=Verdana;fontSize=12;html=1;" vertex="1" parent="1">
          <mxGeometry x="410" y="270" width="120" height="60" as="geometry" />
        </mxCell>
        <mxCell id="gJrPAwoHWTuPe3DyY9Ao-95" style="edgeStyle=orthogonalEdgeStyle;rounded=0;orthogonalLoop=1;jettySize=auto;html=1;exitX=1;exitY=0.5;exitDx=0;exitDy=0;" edge="1" parent="1" source="gJrPAwoHWTuPe3DyY9Ao-7">
          <mxGeometry relative="1" as="geometry">
            <mxPoint x="600" y="410" as="targetPoint" />
          </mxGeometry>
        </mxCell>
        <mxCell id="gJrPAwoHWTuPe3DyY9Ao-7" value="Nurse" style="shape=component;align=left;spacingLeft=36;rounded=0;shadow=0;comic=0;labelBackgroundColor=none;strokeWidth=1;fontFamily=Verdana;fontSize=12;html=1;" vertex="1" parent="1">
          <mxGeometry x="410" y="380" width="120" height="60" as="geometry" />
        </mxCell>
        <mxCell id="gJrPAwoHWTuPe3DyY9Ao-96" style="edgeStyle=orthogonalEdgeStyle;rounded=0;orthogonalLoop=1;jettySize=auto;html=1;exitX=1;exitY=0.5;exitDx=0;exitDy=0;" edge="1" parent="1" source="gJrPAwoHWTuPe3DyY9Ao-8">
          <mxGeometry relative="1" as="geometry">
            <mxPoint x="600" y="520" as="targetPoint" />
          </mxGeometry>
        </mxCell>
        <mxCell id="gJrPAwoHWTuPe3DyY9Ao-8" value="Appointment" style="shape=component;align=left;spacingLeft=36;rounded=0;shadow=0;comic=0;labelBackgroundColor=none;strokeWidth=1;fontFamily=Verdana;fontSize=12;html=1;" vertex="1" parent="1">
          <mxGeometry x="410" y="490" width="120" height="60" as="geometry" />
        </mxCell>
        <mxCell id="gJrPAwoHWTuPe3DyY9Ao-25" style="edgeStyle=orthogonalEdgeStyle;rounded=0;orthogonalLoop=1;jettySize=auto;html=1;exitX=1;exitY=0.5;exitDx=0;exitDy=0;entryX=0;entryY=0.7;entryDx=0;entryDy=0;" edge="1" parent="1" source="gJrPAwoHWTuPe3DyY9Ao-12" target="39150e848f15840c-10">
          <mxGeometry relative="1" as="geometry" />
        </mxCell>
        <mxCell id="gJrPAwoHWTuPe3DyY9Ao-12" value="" style="ellipse;whiteSpace=wrap;html=1;aspect=fixed;" vertex="1" parent="1">
          <mxGeometry x="350" y="90" width="10" height="10" as="geometry" />
        </mxCell>
        <mxCell id="gJrPAwoHWTuPe3DyY9Ao-48" style="edgeStyle=orthogonalEdgeStyle;rounded=0;orthogonalLoop=1;jettySize=auto;html=1;exitX=1;exitY=0.5;exitDx=0;exitDy=0;entryX=0;entryY=0.7;entryDx=0;entryDy=0;" edge="1" parent="1" source="gJrPAwoHWTuPe3DyY9Ao-26" target="gJrPAwoHWTuPe3DyY9Ao-5">
          <mxGeometry relative="1" as="geometry" />
        </mxCell>
        <mxCell id="gJrPAwoHWTuPe3DyY9Ao-26" value="" style="ellipse;whiteSpace=wrap;html=1;aspect=fixed;" vertex="1" parent="1">
          <mxGeometry x="350" y="200" width="10" height="10" as="geometry" />
        </mxCell>
        <mxCell id="gJrPAwoHWTuPe3DyY9Ao-32" style="edgeStyle=orthogonalEdgeStyle;rounded=0;orthogonalLoop=1;jettySize=auto;html=1;exitX=1;exitY=0.5;exitDx=0;exitDy=0;entryX=0;entryY=0.7;entryDx=0;entryDy=0;" edge="1" parent="1" source="gJrPAwoHWTuPe3DyY9Ao-27" target="gJrPAwoHWTuPe3DyY9Ao-6">
          <mxGeometry relative="1" as="geometry" />
        </mxCell>
        <mxCell id="gJrPAwoHWTuPe3DyY9Ao-27" value="" style="ellipse;whiteSpace=wrap;html=1;aspect=fixed;" vertex="1" parent="1">
          <mxGeometry x="350" y="310" width="10" height="10" as="geometry" />
        </mxCell>
        <mxCell id="gJrPAwoHWTuPe3DyY9Ao-33" style="edgeStyle=orthogonalEdgeStyle;rounded=0;orthogonalLoop=1;jettySize=auto;html=1;exitX=1;exitY=0.5;exitDx=0;exitDy=0;entryX=0;entryY=0.7;entryDx=0;entryDy=0;" edge="1" parent="1" source="gJrPAwoHWTuPe3DyY9Ao-28" target="gJrPAwoHWTuPe3DyY9Ao-7">
          <mxGeometry relative="1" as="geometry" />
        </mxCell>
        <mxCell id="gJrPAwoHWTuPe3DyY9Ao-28" value="" style="ellipse;whiteSpace=wrap;html=1;aspect=fixed;" vertex="1" parent="1">
          <mxGeometry x="350" y="420" width="10" height="10" as="geometry" />
        </mxCell>
        <mxCell id="gJrPAwoHWTuPe3DyY9Ao-34" style="edgeStyle=orthogonalEdgeStyle;rounded=0;orthogonalLoop=1;jettySize=auto;html=1;exitX=1;exitY=0.5;exitDx=0;exitDy=0;entryX=0;entryY=0.7;entryDx=0;entryDy=0;" edge="1" parent="1" source="gJrPAwoHWTuPe3DyY9Ao-29" target="gJrPAwoHWTuPe3DyY9Ao-8">
          <mxGeometry relative="1" as="geometry" />
        </mxCell>
        <mxCell id="gJrPAwoHWTuPe3DyY9Ao-29" value="" style="ellipse;whiteSpace=wrap;html=1;aspect=fixed;" vertex="1" parent="1">
          <mxGeometry x="350" y="530" width="10" height="10" as="geometry" />
        </mxCell>
        <mxCell id="gJrPAwoHWTuPe3DyY9Ao-36" style="edgeStyle=orthogonalEdgeStyle;rounded=0;orthogonalLoop=1;jettySize=auto;html=1;exitX=1;exitY=0.5;exitDx=0;exitDy=0;entryX=0;entryY=0.7;entryDx=0;entryDy=0;" edge="1" parent="1" source="gJrPAwoHWTuPe3DyY9Ao-35" target="39150e848f15840c-7">
          <mxGeometry relative="1" as="geometry" />
        </mxCell>
        <mxCell id="gJrPAwoHWTuPe3DyY9Ao-35" value="" style="ellipse;whiteSpace=wrap;html=1;aspect=fixed;" vertex="1" parent="1">
          <mxGeometry x="350" y="640" width="10" height="10" as="geometry" />
        </mxCell>
        <mxCell id="gJrPAwoHWTuPe3DyY9Ao-37" value="Database" style="shape=component;align=left;spacingLeft=36;rounded=0;shadow=0;comic=0;labelBackgroundColor=none;strokeWidth=1;fontFamily=Verdana;fontSize=12;html=1;rotation=0;" vertex="1" parent="1">
          <mxGeometry x="800" y="580" width="120" height="60" as="geometry" />
        </mxCell>
        <mxCell id="gJrPAwoHWTuPe3DyY9Ao-123" style="edgeStyle=orthogonalEdgeStyle;rounded=0;orthogonalLoop=1;jettySize=auto;html=1;exitX=1;exitY=0.5;exitDx=0;exitDy=0;fontFamily=Verdana;fontSize=12;fontColor=rgb(0, 0, 0);" edge="1" parent="1" source="gJrPAwoHWTuPe3DyY9Ao-38">
          <mxGeometry relative="1" as="geometry">
            <mxPoint x="1040" y="610" as="targetPoint" />
          </mxGeometry>
        </mxCell>
        <mxCell id="gJrPAwoHWTuPe3DyY9Ao-38" value="Persistancy" style="shape=component;align=left;spacingLeft=36;rounded=0;shadow=0;comic=0;labelBackgroundColor=none;strokeWidth=1;fontFamily=Verdana;fontSize=12;html=1;" vertex="1" parent="1">
          <mxGeometry x="980" y="420" width="120" height="60" as="geometry" />
        </mxCell>
        <mxCell id="gJrPAwoHWTuPe3DyY9Ao-39" value="Security" style="shape=component;align=left;spacingLeft=36;rounded=0;shadow=0;comic=0;labelBackgroundColor=none;strokeWidth=1;fontFamily=Verdana;fontSize=12;html=1;" vertex="1" parent="1">
          <mxGeometry x="980" y="175" width="120" height="60" as="geometry" />
        </mxCell>
        <mxCell id="gJrPAwoHWTuPe3DyY9Ao-40" value="" style="triangle;whiteSpace=wrap;html=1;" vertex="1" parent="1">
          <mxGeometry x="390" y="170" width="20" height="20" as="geometry" />
        </mxCell>
        <mxCell id="gJrPAwoHWTuPe3DyY9Ao-41" value="" style="triangle;whiteSpace=wrap;html=1;" vertex="1" parent="1">
          <mxGeometry x="390" y="60" width="20" height="20" as="geometry" />
        </mxCell>
        <mxCell id="gJrPAwoHWTuPe3DyY9Ao-43" value="" style="triangle;whiteSpace=wrap;html=1;" vertex="1" parent="1">
          <mxGeometry x="390" y="500" width="20" height="20" as="geometry" />
        </mxCell>
        <mxCell id="gJrPAwoHWTuPe3DyY9Ao-44" value="" style="triangle;whiteSpace=wrap;html=1;" vertex="1" parent="1">
          <mxGeometry x="390" y="390" width="20" height="20" as="geometry" />
        </mxCell>
        <mxCell id="gJrPAwoHWTuPe3DyY9Ao-45" value="" style="triangle;whiteSpace=wrap;html=1;" vertex="1" parent="1">
          <mxGeometry x="390" y="280" width="20" height="20" as="geometry" />
        </mxCell>
        <mxCell id="gJrPAwoHWTuPe3DyY9Ao-74" value="" style="endArrow=none;dashed=1;html=1;rounded=0;" edge="1" parent="1">
          <mxGeometry width="50" height="50" relative="1" as="geometry">
            <mxPoint x="240" y="620" as="sourcePoint" />
            <mxPoint x="240" y="70" as="targetPoint" />
          </mxGeometry>
        </mxCell>
        <mxCell id="gJrPAwoHWTuPe3DyY9Ao-77" value="" style="endArrow=none;dashed=1;html=1;rounded=0;" edge="1" parent="1">
          <mxGeometry width="50" height="50" relative="1" as="geometry">
            <mxPoint x="190" y="240" as="sourcePoint" />
            <mxPoint x="240" y="240" as="targetPoint" />
            <Array as="points">
              <mxPoint x="215" y="240" />
            </Array>
          </mxGeometry>
        </mxCell>
        <mxCell id="gJrPAwoHWTuPe3DyY9Ao-78" value="" style="endArrow=none;dashed=1;html=1;rounded=0;" edge="1" parent="1">
          <mxGeometry width="50" height="50" relative="1" as="geometry">
            <mxPoint x="190" y="260" as="sourcePoint" />
            <mxPoint x="240" y="260" as="targetPoint" />
            <Array as="points">
              <mxPoint x="215" y="260" />
            </Array>
          </mxGeometry>
        </mxCell>
        <mxCell id="gJrPAwoHWTuPe3DyY9Ao-79" value="" style="endArrow=none;dashed=1;html=1;rounded=0;" edge="1" parent="1">
          <mxGeometry width="50" height="50" relative="1" as="geometry">
            <mxPoint x="240" y="70" as="sourcePoint" />
            <mxPoint x="390" y="70" as="targetPoint" />
          </mxGeometry>
        </mxCell>
        <mxCell id="gJrPAwoHWTuPe3DyY9Ao-81" value="" style="endArrow=none;dashed=1;html=1;rounded=0;" edge="1" parent="1">
          <mxGeometry width="50" height="50" relative="1" as="geometry">
            <mxPoint x="240" y="179.5" as="sourcePoint" />
            <mxPoint x="390" y="179.5" as="targetPoint" />
          </mxGeometry>
        </mxCell>
        <mxCell id="gJrPAwoHWTuPe3DyY9Ao-82" value="" style="endArrow=none;dashed=1;html=1;rounded=0;" edge="1" parent="1">
          <mxGeometry width="50" height="50" relative="1" as="geometry">
            <mxPoint x="240" y="290" as="sourcePoint" />
            <mxPoint x="390" y="290" as="targetPoint" />
          </mxGeometry>
        </mxCell>
        <mxCell id="gJrPAwoHWTuPe3DyY9Ao-83" value="" style="endArrow=none;dashed=1;html=1;rounded=0;" edge="1" parent="1">
          <mxGeometry width="50" height="50" relative="1" as="geometry">
            <mxPoint x="240" y="399.5" as="sourcePoint" />
            <mxPoint x="390" y="399.5" as="targetPoint" />
          </mxGeometry>
        </mxCell>
        <mxCell id="gJrPAwoHWTuPe3DyY9Ao-84" value="" style="endArrow=none;dashed=1;html=1;rounded=0;" edge="1" parent="1">
          <mxGeometry width="50" height="50" relative="1" as="geometry">
            <mxPoint x="240" y="509.5" as="sourcePoint" />
            <mxPoint x="390" y="509.5" as="targetPoint" />
          </mxGeometry>
        </mxCell>
        <mxCell id="gJrPAwoHWTuPe3DyY9Ao-85" value="" style="endArrow=none;dashed=1;html=1;rounded=0;startArrow=none;" edge="1" parent="1" source="gJrPAwoHWTuPe3DyY9Ao-86">
          <mxGeometry width="50" height="50" relative="1" as="geometry">
            <mxPoint x="240" y="620" as="sourcePoint" />
            <mxPoint x="390" y="620" as="targetPoint" />
          </mxGeometry>
        </mxCell>
        <mxCell id="gJrPAwoHWTuPe3DyY9Ao-87" value="" style="endArrow=none;dashed=1;html=1;rounded=0;" edge="1" parent="1" target="gJrPAwoHWTuPe3DyY9Ao-86">
          <mxGeometry width="50" height="50" relative="1" as="geometry">
            <mxPoint x="240" y="620" as="sourcePoint" />
            <mxPoint x="390" y="620" as="targetPoint" />
          </mxGeometry>
        </mxCell>
        <mxCell id="gJrPAwoHWTuPe3DyY9Ao-86" value="" style="triangle;whiteSpace=wrap;html=1;" vertex="1" parent="1">
          <mxGeometry x="390" y="610" width="20" height="20" as="geometry" />
        </mxCell>
        <mxCell id="gJrPAwoHWTuPe3DyY9Ao-91" value="" style="endArrow=none;html=1;rounded=0;" edge="1" parent="1">
          <mxGeometry width="50" height="50" relative="1" as="geometry">
            <mxPoint x="600" y="660" as="sourcePoint" />
            <mxPoint x="600" y="40" as="targetPoint" />
          </mxGeometry>
        </mxCell>
        <mxCell id="gJrPAwoHWTuPe3DyY9Ao-98" value="" style="rounded=0;orthogonalLoop=1;jettySize=auto;html=1;endArrow=none;endFill=0;sketch=0;sourcePerimeterSpacing=0;targetPerimeterSpacing=0;" edge="1" target="gJrPAwoHWTuPe3DyY9Ao-100" parent="1">
          <mxGeometry relative="1" as="geometry">
            <mxPoint x="600" y="190" as="sourcePoint" />
            <Array as="points" />
          </mxGeometry>
        </mxCell>
        <mxCell id="gJrPAwoHWTuPe3DyY9Ao-99" value="" style="rounded=0;orthogonalLoop=1;jettySize=auto;html=1;endArrow=halfCircle;endFill=0;entryX=0.5;entryY=0.5;endSize=6;strokeWidth=1;sketch=0;exitX=0;exitY=0.3;exitDx=0;exitDy=0;" edge="1" target="gJrPAwoHWTuPe3DyY9Ao-100" parent="1" source="gJrPAwoHWTuPe3DyY9Ao-39">
          <mxGeometry relative="1" as="geometry">
            <mxPoint x="910" y="355" as="sourcePoint" />
          </mxGeometry>
        </mxCell>
        <mxCell id="gJrPAwoHWTuPe3DyY9Ao-100" value="" style="ellipse;whiteSpace=wrap;html=1;align=center;aspect=fixed;resizable=0;points=[];outlineConnect=0;sketch=0;" vertex="1" parent="1">
          <mxGeometry x="780" y="185" width="10" height="10" as="geometry" />
        </mxCell>
        <mxCell id="gJrPAwoHWTuPe3DyY9Ao-103" value="" style="ellipse;whiteSpace=wrap;html=1;align=center;aspect=fixed;resizable=0;points=[];outlineConnect=0;sketch=0;fillColor=rgb(251, 251, 251);strokeColor=rgb(0, 0, 0);fontColor=rgb(0, 0, 0);" vertex="1" parent="1">
          <mxGeometry x="1560" y="660" width="10" height="10" as="geometry" />
        </mxCell>
        <mxCell id="gJrPAwoHWTuPe3DyY9Ao-107" value="" style="rounded=0;orthogonalLoop=1;jettySize=auto;html=1;endArrow=none;endFill=0;sketch=0;sourcePerimeterSpacing=0;targetPerimeterSpacing=0;" edge="1" target="gJrPAwoHWTuPe3DyY9Ao-109" parent="1">
          <mxGeometry relative="1" as="geometry">
            <mxPoint x="600" y="220" as="sourcePoint" />
          </mxGeometry>
        </mxCell>
        <mxCell id="gJrPAwoHWTuPe3DyY9Ao-108" value="" style="rounded=0;orthogonalLoop=1;jettySize=auto;html=1;endArrow=halfCircle;endFill=0;entryX=0.5;entryY=0.5;endSize=6;strokeWidth=1;sketch=0;exitX=0;exitY=0.7;exitDx=0;exitDy=0;" edge="1" target="gJrPAwoHWTuPe3DyY9Ao-109" parent="1" source="gJrPAwoHWTuPe3DyY9Ao-39">
          <mxGeometry relative="1" as="geometry">
            <mxPoint x="840" y="135" as="sourcePoint" />
          </mxGeometry>
        </mxCell>
        <mxCell id="gJrPAwoHWTuPe3DyY9Ao-109" value="" style="ellipse;whiteSpace=wrap;html=1;align=center;aspect=fixed;resizable=0;points=[];outlineConnect=0;sketch=0;" vertex="1" parent="1">
          <mxGeometry x="780" y="220" width="10" height="10" as="geometry" />
        </mxCell>
        <mxCell id="gJrPAwoHWTuPe3DyY9Ao-110" value="" style="rounded=0;orthogonalLoop=1;jettySize=auto;html=1;endArrow=none;endFill=0;sketch=0;sourcePerimeterSpacing=0;targetPerimeterSpacing=0;" edge="1" target="gJrPAwoHWTuPe3DyY9Ao-112" parent="1">
          <mxGeometry relative="1" as="geometry">
            <mxPoint x="600" y="435" as="sourcePoint" />
          </mxGeometry>
        </mxCell>
        <mxCell id="gJrPAwoHWTuPe3DyY9Ao-111" value="" style="rounded=0;orthogonalLoop=1;jettySize=auto;html=1;endArrow=halfCircle;endFill=0;entryX=0.5;entryY=0.5;endSize=6;strokeWidth=1;sketch=0;exitX=0;exitY=0.3;exitDx=0;exitDy=0;" edge="1" target="gJrPAwoHWTuPe3DyY9Ao-112" parent="1" source="gJrPAwoHWTuPe3DyY9Ao-38">
          <mxGeometry relative="1" as="geometry">
            <mxPoint x="840" y="335" as="sourcePoint" />
          </mxGeometry>
        </mxCell>
        <mxCell id="gJrPAwoHWTuPe3DyY9Ao-112" value="" style="ellipse;whiteSpace=wrap;html=1;align=center;aspect=fixed;resizable=0;points=[];outlineConnect=0;sketch=0;" vertex="1" parent="1">
          <mxGeometry x="710" y="430" width="10" height="10" as="geometry" />
        </mxCell>
        <mxCell id="gJrPAwoHWTuPe3DyY9Ao-113" value="" style="rounded=0;orthogonalLoop=1;jettySize=auto;html=1;endArrow=none;endFill=0;sketch=0;sourcePerimeterSpacing=0;targetPerimeterSpacing=0;" edge="1" target="gJrPAwoHWTuPe3DyY9Ao-115" parent="1">
          <mxGeometry relative="1" as="geometry">
            <mxPoint x="600" y="465" as="sourcePoint" />
          </mxGeometry>
        </mxCell>
        <mxCell id="gJrPAwoHWTuPe3DyY9Ao-114" value="" style="rounded=0;orthogonalLoop=1;jettySize=auto;html=1;endArrow=halfCircle;endFill=0;entryX=0.5;entryY=0.5;endSize=6;strokeWidth=1;sketch=0;exitX=0;exitY=0.7;exitDx=0;exitDy=0;" edge="1" target="gJrPAwoHWTuPe3DyY9Ao-115" parent="1" source="gJrPAwoHWTuPe3DyY9Ao-38">
          <mxGeometry relative="1" as="geometry">
            <mxPoint x="840" y="335" as="sourcePoint" />
          </mxGeometry>
        </mxCell>
        <mxCell id="gJrPAwoHWTuPe3DyY9Ao-115" value="" style="ellipse;whiteSpace=wrap;html=1;align=center;aspect=fixed;resizable=0;points=[];outlineConnect=0;sketch=0;" vertex="1" parent="1">
          <mxGeometry x="710" y="460" width="10" height="10" as="geometry" />
        </mxCell>
        <mxCell id="gJrPAwoHWTuPe3DyY9Ao-117" value="" style="rounded=0;orthogonalLoop=1;jettySize=auto;html=1;endArrow=none;endFill=0;sketch=0;sourcePerimeterSpacing=0;targetPerimeterSpacing=0;fontFamily=Verdana;fontSize=12;fontColor=rgb(0, 0, 0);" edge="1" target="gJrPAwoHWTuPe3DyY9Ao-119" parent="1">
          <mxGeometry relative="1" as="geometry">
            <mxPoint x="1040" y="610" as="sourcePoint" />
          </mxGeometry>
        </mxCell>
        <mxCell id="gJrPAwoHWTuPe3DyY9Ao-118" value="" style="rounded=0;orthogonalLoop=1;jettySize=auto;html=1;endArrow=halfCircle;endFill=0;entryX=0.5;entryY=0.5;endSize=6;strokeWidth=1;sketch=0;fontFamily=Verdana;fontSize=12;fontColor=rgb(0, 0, 0);" edge="1" target="gJrPAwoHWTuPe3DyY9Ao-119" parent="1" source="gJrPAwoHWTuPe3DyY9Ao-37">
          <mxGeometry relative="1" as="geometry">
            <mxPoint x="1040" y="535" as="sourcePoint" />
          </mxGeometry>
        </mxCell>
        <mxCell id="gJrPAwoHWTuPe3DyY9Ao-119" value="" style="ellipse;whiteSpace=wrap;html=1;align=center;aspect=fixed;resizable=0;points=[];outlineConnect=0;sketch=0;rounded=0;shadow=0;labelBackgroundColor=none;comic=0;strokeColor=rgb(0, 0, 0);strokeWidth=1;fontFamily=Verdana;fontSize=12;fontColor=rgb(0, 0, 0);fillColor=rgb(251, 251, 251);rotation=0;" vertex="1" parent="1">
          <mxGeometry x="970" y="605" width="10" height="10" as="geometry" />
        </mxCell>
        <mxCell id="gJrPAwoHWTuPe3DyY9Ao-124" value="Encryption" style="text;html=1;strokeColor=none;fillColor=none;align=center;verticalAlign=middle;whiteSpace=wrap;rounded=0;fontSize=12;fontFamily=Verdana;fontColor=rgb(0, 0, 0);" vertex="1" parent="1">
          <mxGeometry x="750" y="145" width="60" height="30" as="geometry" />
        </mxCell>
        <mxCell id="gJrPAwoHWTuPe3DyY9Ao-126" value="Access Control" style="text;html=1;strokeColor=none;fillColor=none;align=center;verticalAlign=middle;whiteSpace=wrap;rounded=0;fontSize=12;fontFamily=Verdana;fontColor=rgb(0, 0, 0);" vertex="1" parent="1">
          <mxGeometry x="755" y="240" width="60" height="30" as="geometry" />
        </mxCell>
        <mxCell id="gJrPAwoHWTuPe3DyY9Ao-128" value="Encryption" style="text;html=1;strokeColor=none;fillColor=none;align=center;verticalAlign=middle;whiteSpace=wrap;rounded=0;fontSize=12;fontFamily=Verdana;fontColor=rgb(0, 0, 0);" vertex="1" parent="1">
          <mxGeometry x="690" y="390" width="60" height="30" as="geometry" />
        </mxCell>
        <mxCell id="gJrPAwoHWTuPe3DyY9Ao-129" value="Access Control" style="text;html=1;strokeColor=none;fillColor=none;align=center;verticalAlign=middle;whiteSpace=wrap;rounded=0;fontSize=12;fontFamily=Verdana;fontColor=rgb(0, 0, 0);" vertex="1" parent="1">
          <mxGeometry x="685" y="480" width="60" height="30" as="geometry" />
        </mxCell>
        <mxCell id="gJrPAwoHWTuPe3DyY9Ao-130" value="Database Connector" style="text;html=1;strokeColor=none;fillColor=none;align=center;verticalAlign=middle;whiteSpace=wrap;rounded=0;fontSize=12;fontFamily=Verdana;fontColor=rgb(0, 0, 0);" vertex="1" parent="1">
          <mxGeometry x="945" y="560" width="60" height="30" as="geometry" />
        </mxCell>
        <mxCell id="gJrPAwoHWTuPe3DyY9Ao-131" value="&lt;b&gt;&lt;font style=&quot;font-size: 44px;&quot;&gt;COMPONENT DIAGRAM OF HOSPIWARE&lt;/font&gt;&lt;/b&gt;" style="rounded=0;whiteSpace=wrap;html=1;shadow=0;labelBackgroundColor=none;comic=0;strokeColor=rgb(0, 0, 0);strokeWidth=1;fontFamily=Verdana;fontSize=12;fontColor=rgb(0, 0, 0);fillColor=rgb(251, 251, 251);" vertex="1" parent="1">
          <mxGeometry x="190" y="-30" width="1210" height="60" as="geometry" />
        </mxCell>
      </root>
    </mxGraphModel>
  </diagram>
</mxfile>
